<svg width="1555" height="1195" viewBox="0 0 1555 1195" fill="none" xmlns="http://www.w3.org/2000/svg">
<path d="M2104 546C2104 847.547 1859.55 1092 1558 1092C1256.45 1092 1012 847.547 1012 546C1012 244.453 1256.45 0 1558 0C1859.55 0 2104 244.453 2104 546Z" fill="#FFE530"/>
<path d="M1960 425C1960 657.512 1771.51 846 1539 846C1306.49 846 1118 657.512 1118 425C1118 192.488 1306.49 4 1539 4C1771.51 4 1960 192.488 1960 425Z" fill="#FFE12A"/>
<path d="M1855 330.5C1855 510.821 1708.82 657 1528.5 657C1348.18 657 1202 510.821 1202 330.5C1202 150.179 1348.18 4 1528.5 4C1708.82 4 1855 150.179 1855 330.5Z" fill="#FFDD25"/>
<path d="M155 1029.5C155 1120.9 80.9031 1195 -10.5 1195C-101.903 1195 -176 1120.9 -176 1029.5C-176 938.097 -101.903 864 -10.5 864C80.9031 864 155 938.097 155 1029.5Z" fill="#FFE530"/>
<path d="M156 1029C156 1098.04 100.036 1154 31 1154C-38.0356 1154 -94 1098.04 -94 1029C-94 959.964 -38.0356 904 31 904C100.036 904 156 959.964 156 1029Z" fill="#FFDF2B"/>
<path d="M155 1034.5C155 1087.24 112.243 1130 59.5 1130C6.75681 1130 -36 1087.24 -36 1034.5C-36 981.757 6.75681 939 59.5 939C112.243 939 155 981.757 155 1034.5Z" fill="#FFDC26"/>
</svg>
