<svg width="1618" height="819" viewBox="0 0 1618 819" fill="none" xmlns="http://www.w3.org/2000/svg">
<path d="M1617.5 0V215.5C1282.5 248 1020.5 88 801 422C486.208 901 131 818 0 803.5V0H1617.5Z" fill="#FF6752"/>
<path d="M1617.5 0V215.5C1504.5 209 930.5 -42 657.5 321C473.394 565.8 230.5 630.5 0 698V0H1617.5Z" fill="#F9593F"/>
<path d="M7.62939e-06 667.127C63 655.627 203 608.5 267 510.5C344.399 391.982 480.301 15.5852 1090.83 124.816C1253.55 108.782 1434.24 155.806 1617.5 215C1617.5 215 1394.57 190.899 1154 137.5C1132.4 132.705 1111.35 128.486 1090.83 124.816C923.687 141.287 775.506 224.295 663 429C524.5 681 125.667 753.794 7.62939e-06 712.628V667.127Z" fill="#FD6148"/>
</svg>
