<svg width="1618" height="729" viewBox="0 0 1618 729" fill="none" xmlns="http://www.w3.org/2000/svg">
<g clip-path="url(#clip0_102_107)">
<path d="M1617.5 -90V125.5C1282.5 158 1020.5 -2 801 332C486.208 811 131 728 0 713.5V-90H1617.5Z" fill="#FF6752"/>
<path d="M1617.5 -90V125.5C1504.5 119 930.5 -132 657.5 231C473.394 475.8 230.5 540.5 0 608V-90H1617.5Z" fill="#F9593F"/>
<path d="M0 577.127C63 565.627 203 518.5 267 420.5C344.399 301.982 480.301 -74.4148 1090.83 34.816C1253.55 18.782 1434.24 65.806 1617.5 125C1617.5 125 1394.57 100.899 1154 47.5C1132.4 42.705 1111.35 38.486 1090.83 34.816C923.687 51.287 775.506 134.295 663 339C524.5 591 125.667 663.794 0 622.628V577.127Z" fill="#FD6148"/>
</g>
<defs>
<clipPath id="clip0_102_107">
<rect width="1618" height="819" fill="white" transform="translate(0 -90)"/>
</clipPath>
</defs>
</svg>
