<svg width="1000" height="1073" viewBox="0 0 1000 1073" fill="none" xmlns="http://www.w3.org/2000/svg">
<path d="M0 1073H930.5C923.667 1045 881.5 899.5 747 553C612.369 206.161 828.5 115.5 999.5 0H0V1073Z" fill="url(#paint0_linear_96_99)"/>
<path d="M1 1073H624.613C589.468 1005.4 500.69 803.451 426.736 536.5C352.781 269.549 648.764 67.6037 806 0H1V1073Z" fill="url(#paint1_linear_96_99)"/>
<path d="M638.72 592C532.32 329.2 594.386 152.5 638.72 97C365.22 188.5 258.262 490.511 393.22 754C435.22 836 493.72 949 524.22 1072.5H777.72C775.72 1021.83 745.12 854.8 638.72 592Z" fill="url(#paint2_linear_96_99)"/>
<path d="M915.5 0H753C693 36.5 622 110 639.5 97C653.5 86.6 829.333 27.6667 915.5 0Z" fill="#FC6048"/>
<defs>
<linearGradient id="paint0_linear_96_99" x1="499.75" y1="0" x2="499.75" y2="1073" gradientUnits="userSpaceOnUse">
<stop offset="0.5" stop-color="#FF6752"/>
<stop offset="1" stop-color="#FF6752"/>
</linearGradient>
<linearGradient id="paint1_linear_96_99" x1="499.75" y1="0" x2="499.75" y2="1073" gradientUnits="userSpaceOnUse">
<stop offset="0.5" stop-color="#F8583E"/>
<stop offset="1" stop-color="#FE5D40"/>
</linearGradient>
<linearGradient id="paint2_linear_96_99" x1="499.75" y1="0" x2="499.75" y2="1073" gradientUnits="userSpaceOnUse">
<stop offset="0.5" stop-color="#FC6048"/>
<stop offset="1" stop-color="#FE6248"/>
</linearGradient>
</defs>
</svg>
